<svg width="500" height="500" viewBox="0 0 500 500" fill="none" xmlns="http://www.w3.org/2000/svg">
<circle cx="250" cy="250" r="241.279" fill="#28BBC5" stroke="#0B1F4C" stroke-width="17.4419"/>
<path d="M400.211 320.605L422.362 307.804C426.618 305.337 429.246 300.791 429.246 295.874V236.836C429.246 231.919 426.618 227.373 422.362 224.906L400.211 212.105V320.572V320.605Z" fill="black"/>
<path d="M99.0352 214.266L76.884 227.066C72.6278 229.517 70 234.063 70 238.98V296.406C70 301.323 72.6278 305.869 76.884 308.336L99.0352 321.137V214.266V214.266Z" fill="black"/>
<path d="M179.308 126.95C176.519 122.178 178.373 116.036 183.322 113.585C203.539 103.542 226.045 97.9473 249.792 97.9473C337.22 97.9473 408.107 173.945 408.107 267.709C408.107 342.965 337.22 403.97 249.792 403.97C162.364 403.97 91.4766 342.949 91.4766 267.693C91.4766 213.959 127.605 167.48 180.114 145.297C184.322 143.523 186.063 138.51 183.757 134.56L179.308 126.934V126.95Z" fill="#F3F3F3"/>
<path d="M249.728 367.084C316.56 367.084 370.738 322.585 370.738 267.693C370.738 212.801 316.56 168.303 249.728 168.303C182.897 168.303 128.719 212.801 128.719 267.693C128.719 322.585 182.897 367.084 249.728 367.084Z" fill="#0B1F4C" stroke="black" stroke-width="11.8817" stroke-miterlimit="10"/>
<path d="M208.562 268.115C208.787 249.64 199.856 234.55 188.635 234.421C177.414 234.292 168.128 249.156 167.903 267.632C167.677 286.107 176.608 301.197 187.829 301.326C199.05 301.455 208.336 286.591 208.562 268.115V268.115Z" fill="white"/>
<path d="M334.054 268.115C334.279 249.64 325.348 234.55 314.127 234.421C302.907 234.292 293.621 249.156 293.395 267.632C293.169 286.107 302.101 301.197 313.321 301.326C324.542 301.455 333.828 286.591 334.038 268.115H334.054Z" fill="white"/>
<path d="M249.795 409.904C159.223 409.904 85.5469 346.111 85.5469 267.695C85.5469 240.449 94.4622 213.977 111.342 191.133C127.657 169.046 150.646 151.312 177.812 139.833C178.44 139.575 178.682 139.092 178.763 138.818C178.859 138.527 178.924 138.06 178.634 137.576L174.184 129.951C172.04 126.259 171.508 121.809 172.717 117.714C173.942 113.619 176.844 110.169 180.681 108.267C202.413 97.4653 225.661 92 249.795 92C340.367 92 414.043 170.819 414.043 267.695C414.043 346.111 340.351 409.904 249.795 409.904V409.904ZM184.438 123.953L188.887 131.579C190.838 134.9 191.241 138.914 190.032 142.574C188.807 146.266 186.034 149.264 182.422 150.78C129.994 172.931 97.4125 217.733 97.4125 267.695C97.4125 339.549 165.769 398.023 249.779 398.023C333.789 398.023 402.145 339.565 402.145 267.695C402.145 177.365 333.789 103.882 249.779 103.882C227.499 103.882 206.025 108.928 185.953 118.907C184.728 119.52 184.26 120.552 184.083 121.116C183.922 121.68 183.744 122.793 184.421 123.953H184.438Z" fill="black"/>
</svg>
